<?xml version="1.0" encoding="UTF-8"?>
<svg xmlns="http://www.w3.org/2000/svg" xmlns:xlink="http://www.w3.org/1999/xlink" viewBox="0 0 30 30" width="30px" height="30px">
<g id="surface42189138">
<path style="fill-rule:nonzero;fill:rgb(80.000001%,80.000001%,80.000001%);fill-opacity:1;stroke-width:1;stroke-linecap:butt;stroke-linejoin:round;stroke:rgb(80.000001%,80.000001%,80.000001%);stroke-opacity:1;stroke-miterlimit:10;" d="M 131.873153 74.53171 C 131.873153 88.275631 126.983922 100.893002 118.895286 110.784119 L 153.119904 145.008737 C 154.606952 146.450723 155.215289 148.591169 154.697076 150.59643 C 154.178862 152.601691 152.601691 154.178862 150.59643 154.697076 C 148.591169 155.215289 146.450723 154.606952 145.008737 153.119904 L 110.784119 118.895286 C 100.893002 126.983922 88.275631 131.873153 74.53171 131.873153 C 42.943221 131.873153 17.190266 106.120199 17.190266 74.53171 C 17.190266 42.943221 42.943221 17.190266 74.53171 17.190266 C 106.120199 17.190266 131.873153 42.943221 131.873153 74.53171 Z M 28.658555 74.53171 C 28.658555 99.924168 49.139251 120.404865 74.53171 120.404865 C 99.924168 120.404865 120.404865 99.924168 120.404865 74.53171 C 120.404865 49.139251 99.924168 28.658555 74.53171 28.658555 C 49.139251 28.658555 28.658555 49.139251 28.658555 74.53171 Z M 28.658555 74.53171 " transform="matrix(0.173372,0,0,0.173372,0.09,0.09)"/>
<path style=" stroke:none;fill-rule:nonzero;fill:rgb(80.000001%,80.000001%,80.000001%);fill-opacity:1;" d="M 13.011719 3.070312 C 7.535156 3.070312 3.070312 7.535156 3.070312 13.011719 C 3.070312 18.488281 7.535156 22.953125 13.011719 22.953125 C 15.394531 22.953125 17.582031 22.105469 19.296875 20.703125 L 25.230469 26.636719 C 25.480469 26.894531 25.851562 27 26.199219 26.910156 C 26.546875 26.820312 26.820312 26.546875 26.910156 26.199219 C 27 25.851562 26.894531 25.480469 26.636719 25.230469 L 20.703125 19.296875 C 22.105469 17.582031 22.953125 15.394531 22.953125 13.011719 C 22.953125 7.535156 18.488281 3.070312 13.011719 3.070312 Z M 13.011719 5.058594 C 17.414062 5.058594 20.964844 8.609375 20.964844 13.011719 C 20.964844 17.414062 17.414062 20.964844 13.011719 20.964844 C 8.609375 20.964844 5.058594 17.414062 5.058594 13.011719 C 5.058594 8.609375 8.609375 5.058594 13.011719 5.058594 Z M 13.011719 5.058594 "/>
</g>
</svg>
